# xmcd
# 
# Track frame offsets:
#     150
#     15874
#     30785
#     49820
#     61539
#     76656
#     94108
#     104222
#     121802
#     138100
#     155580
# 
# Disc length: 2323
# 
# Revision: 2
# Processed by: cddbd v1.5.2PL0 Copyright (c) Steve Scherf et al.
# Submitted via: fre:ac v1.0.27
# 
DISCID=7309110b
DTITLE=Amanda Shires - Down Fell the Doves
DYEAR=2013
DGENRE=Folk-Rock
TTITLE0=Looks Like a Bird
TTITLE1=Devastate
TTITLE2=Bulletproof
TTITLE3=Box Cutters
TTITLE4=Deep Dark Below
TTITLE5=Wasted and Rollin'
TTITLE6=If I...
TTITLE7=Stay
TTITLE8=The Drop and Lift
TTITLE9=A Song for Leonard Cohen
TTITLE10=The Garden (What a Mess)
EXTD=
EXTT0=
EXTT1=
EXTT2=
EXTT3=
EXTT4=
EXTT5=
EXTT6=
EXTT7=
EXTT8=
EXTT9=
EXTT10=
PLAYORDER=
